<svg xmlns:x="&amp;ns_extend;" xmlns:i="&amp;ns_ai;" xmlns:graph="&amp;ns_graphs;" xmlns="http://www.w3.org/2000/svg" xmlns:xlink="http://www.w3.org/1999/xlink" version="1.1" id="Layer_1" x="0px" y="0px" viewBox="0 0 315 244.1" style="enable-background:new 0 0 315 244.1;" xml:space="preserve" width="315"  height="244.1" >
      <style type="text/css">.st0{fill:#EEEEEE;}	.st1{opacity:0.4;enable-background:new    ;}	.st2{opacity:0.2;enable-background:new    ;}	.st3{opacity:0.25;enable-background:new    ;}</style>
    <metadata>
              <sfw>
                      <slices/>
            <sliceSourceBounds bottomLeftOrigin="true" height="244.1" width="315" x="0" y="0"/>
                  </sfw>
          </metadata>
    <g id="color_index_0" fill="#EEEEEE">
              <polygon points="315,244.1 178.3,101.1 284.1,0 171.5,0 78,89.4 78,0 0,0 0,244.1 78,244.1 78,197 122.1,154.8 &#9;&#9;207.4,244.1 &#9;"/>
          </g>
    <g>
              <polygon class="st1" points="178.3,101.1 122.1,154.8 207.4,244.1 315,244.1 &#9;"/>
        <polygon class="st2" points="78,197 284.1,0 171.5,0 78,89.4 &#9;"/>
          </g>
    <g>
              <polygon class="st3" points="122.1,154.8 133.5,166.8 189.8,113.1 178.3,101.1 &#9;"/>
        <polygon class="st3" points="78,197 91.9,183.7 91.9,76.1 78,89.4 &#9;"/>
          </g>
  </svg>